solid sample2_1
facet normal 0.0 -1.0 0.0
  outer loop
    vertex 81.5238902251088 32.115858387053294 15.730769230769234
    vertex 30.52389022510895 32.115858387053294 3.0000000000000004
    vertex 30.52389022510895 32.115858387053294 2.0000000000000004
  endloop
endfacet
facet normal 0.0 -1.0 0.0
  outer loop
    vertex 30.52389022510895 32.115858387053294 3.0000000000000004
    vertex 81.5238902251088 32.115858387053294 15.730769230769234
    vertex 81.5238902251088 32.115858387053294 16.0
  endloop
endfacet
facet normal 1.0 0.0 0.0
  outer loop
    vertex 82.5238902251088 32.115858387053294 15.0
    vertex 82.5238902251088 31.115858387053294 16.0
    vertex 82.5238902251088 31.115858387053294 15.0
  endloop
endfacet
facet normal 1.0 0.0 0.0
  outer loop
    vertex 82.5238902251088 31.115858387053294 16.0
    vertex 82.5238902251088 32.115858387053294 15.0
    vertex 82.5238902251088 32.115858387053294 16.0
  endloop
endfacet
facet normal 1.0 0.0 0.0
  outer loop
    vertex 81.5238902251088 56.11585838705331 14.999999999999998
    vertex 81.5238902251088 55.11585838705331 15.999999999999998
    vertex 81.5238902251088 55.11585838705331 14.999999999999998
  endloop
endfacet
facet normal 1.0 0.0 0.0
  outer loop
    vertex 81.5238902251088 55.11585838705331 15.999999999999998
    vertex 81.5238902251088 56.11585838705331 14.999999999999998
    vertex 81.5238902251088 56.11585838705331 15.999999999999998
  endloop
endfacet
facet normal 1.0 0.0 0.0
  outer loop
    vertex 81.5238902251088 56.11585838705331 15.999999999999998
    vertex 81.5238902251088 56.11585838705331 14.999999999999998
    vertex 81.5238902251088 56.11585838705331 15.730769230769234
  endloop
endfacet
facet normal 1.0 0.0 0.0
  outer loop
    vertex 82.5238902251088 57.1158583870533 14.999999999999998
    vertex 82.5238902251088 56.11585838705331 16.0
    vertex 82.5238902251088 56.11585838705331 14.999999999999998
  endloop
endfacet
facet normal 1.0 0.0 0.0
  outer loop
    vertex 82.5238902251088 56.11585838705331 16.0
    vertex 82.5238902251088 57.1158583870533 14.999999999999998
    vertex 82.5238902251088 57.1158583870533 16.0
  endloop
endfacet
facet normal -5.287437154777318e-16 2.4033805248987744e-17 1.0
  outer loop
    vertex 81.5238902251088 33.115858387053294 2.0000000000000018
    vertex 80.5238902251088 55.11585838705331 2.0000000000000004
    vertex 80.5238902251088 33.115858387053294 2.0000000000000004
  endloop
endfacet
facet normal -5.287437154777318e-16 2.4033805248987744e-17 1.0
  outer loop
    vertex 80.5238902251088 55.11585838705331 2.0000000000000004
    vertex 81.5238902251088 33.115858387053294 2.0000000000000018
    vertex 81.5238902251088 55.11585838705331 2.0000000000000004
  endloop
endfacet
facet normal 0.0 0.0 1.0
  outer loop
    vertex 82.5238902251088 32.115858387053294 15.0
    vertex 81.5238902251088 33.115858387053294 15.0
    vertex 81.5238902251088 32.115858387053294 15.0
  endloop
endfacet
facet normal 0.0 0.0 1.0
  outer loop
    vertex 81.5238902251088 33.115858387053294 15.0
    vertex 82.5238902251088 32.115858387053294 15.0
    vertex 81.5238902251088 38.115858387053294 15.0
  endloop
endfacet
facet normal 0.0 0.0 1.0
  outer loop
    vertex 81.5238902251088 38.115858387053294 15.0
    vertex 82.5238902251088 32.115858387053294 15.0
    vertex 82.5238902251088 38.115858387053294 15.0
  endloop
endfacet
facet normal -0.25997347344787336 0.0 0.9656157585206695
  outer loop
    vertex 81.5238902251088 56.11585838705331 15.730769230769234
    vertex 30.52389022510895 57.1158583870533 2.0000000000000004
    vertex 30.52389022510895 56.11585838705331 2.0000000000000004
  endloop
endfacet
facet normal -0.25997347344787336 0.0 0.9656157585206695
  outer loop
    vertex 30.52389022510895 57.1158583870533 2.0000000000000004
    vertex 81.5238902251088 56.11585838705331 15.730769230769234
    vertex 82.5238902251088 57.1158583870533 16.0
  endloop
endfacet
facet normal -0.25997347344787336 0.0 0.9656157585206695
  outer loop
    vertex 82.5238902251088 57.1158583870533 16.0
    vertex 81.5238902251088 56.11585838705331 15.730769230769234
    vertex 82.5238902251088 56.11585838705331 16.0
  endloop
endfacet
facet normal 0.0 0.0 1.0
  outer loop
    vertex 80.5238902251088 33.115858387053294 2.0000000000000004
    vertex 30.52389022510895 55.11585838705331 2.0000000000000004
    vertex 30.52389022510895 33.115858387053294 2.0000000000000004
  endloop
endfacet
facet normal 0.0 0.0 1.0
  outer loop
    vertex 30.52389022510895 55.11585838705331 2.0000000000000004
    vertex 80.5238902251088 33.115858387053294 2.0000000000000004
    vertex 80.5238902251088 55.11585838705331 2.0000000000000004
  endloop
endfacet
facet normal 0.0 1.0 -4.699944137579828e-16
  outer loop
    vertex 81.5238902251088 38.115858387053294 15.0
    vertex 82.52389022510877 38.115858387053294 11.000000000000002
    vertex 81.52389022510877 38.115858387053294 11.000000000000002
  endloop
endfacet
facet normal 0.0 1.0 -4.699944137579828e-16
  outer loop
    vertex 82.52389022510877 38.115858387053294 11.000000000000002
    vertex 81.5238902251088 38.115858387053294 15.0
    vertex 82.5238902251088 38.115858387053294 15.0
  endloop
endfacet
facet normal 0.0 0.0 1.0
  outer loop
    vertex 30.52389022510895 32.115858387053294 3.0000000000000004
    vertex 29.52389022510896 56.11585838705331 3.0000000000000004
    vertex 29.52389022510896 32.115858387053294 3.0000000000000004
  endloop
endfacet
facet normal 0.0 0.0 1.0
  outer loop
    vertex 29.52389022510896 56.11585838705331 3.0000000000000004
    vertex 30.52389022510895 32.115858387053294 3.0000000000000004
    vertex 30.52389022510895 56.11585838705331 3.0000000000000004
  endloop
endfacet
facet normal 0.0 0.0 1.0
  outer loop
    vertex 30.52389022510895 56.11585838705331 3.0000000000000004
    vertex 30.52389022510895 32.115858387053294 3.0000000000000004
    vertex 30.52389022510895 33.115858387053294 3.0000000000000004
  endloop
endfacet
facet normal 0.0 0.0 1.0
  outer loop
    vertex 30.52389022510895 56.11585838705331 3.0000000000000004
    vertex 30.52389022510895 33.115858387053294 3.0000000000000004
    vertex 30.52389022510895 55.11585838705331 3.0000000000000004
  endloop
endfacet
facet normal -1.0 -0.0 -0.0
  outer loop
    vertex 29.52389022510896 56.11585838705331 3.0000000000000004
    vertex 29.52389022510896 32.115858387053294 2.0000000000000004
    vertex 29.52389022510896 32.115858387053294 3.0000000000000004
  endloop
endfacet
facet normal -1.0 -0.0 -0.0
  outer loop
    vertex 29.52389022510896 32.115858387053294 2.0000000000000004
    vertex 29.52389022510896 56.11585838705331 3.0000000000000004
    vertex 29.52389022510896 56.11585838705331 2.0000000000000004
  endloop
endfacet
facet normal 0.0 0.0 -1.0
  outer loop
    vertex 82.5238902251088 57.1158583870533 0.0
    vertex 28.523890225108964 31.115858387053294 0.0
    vertex 28.523890225108964 57.1158583870533 0.0
  endloop
endfacet
facet normal 0.0 0.0 -1.0
  outer loop
    vertex 28.523890225108964 31.115858387053294 0.0
    vertex 82.5238902251088 57.1158583870533 0.0
    vertex 82.5238902251088 31.115858387053294 0.0
  endloop
endfacet
facet normal -1.0 0.0 0.0
  outer loop
    vertex 28.523890225108964 57.1158583870533 2.0000000000000004
    vertex 28.523890225108964 31.115858387053294 0.0
    vertex 28.523890225108964 31.115858387053294 2.0000000000000004
  endloop
endfacet
facet normal -1.0 0.0 0.0
  outer loop
    vertex 28.523890225108964 31.115858387053294 0.0
    vertex 28.523890225108964 57.1158583870533 2.0000000000000004
    vertex 28.523890225108964 57.1158583870533 0.0
  endloop
endfacet
facet normal 0.0 -1.0 0.0
  outer loop
    vertex 82.5238902251088 31.115858387053294 2.0000000000000018
    vertex 28.523890225108964 31.115858387053294 0.0
    vertex 82.5238902251088 31.115858387053294 0.0
  endloop
endfacet
facet normal 0.0 -1.0 0.0
  outer loop
    vertex 28.523890225108964 31.115858387053294 0.0
    vertex 82.5238902251088 31.115858387053294 2.0000000000000018
    vertex 30.52389022510895 31.115858387053294 2.0000000000000004
  endloop
endfacet
facet normal 0.0 -1.0 0.0
  outer loop
    vertex 30.52389022510895 31.115858387053294 2.0000000000000004
    vertex 28.523890225108964 31.115858387053294 2.0000000000000004
    vertex 28.523890225108964 31.115858387053294 0.0
  endloop
endfacet
facet normal 0.0 -1.0 0.0
  outer loop
    vertex 28.523890225108964 31.115858387053294 2.0000000000000004
    vertex 30.52389022510895 31.115858387053294 2.0000000000000004
    vertex 29.52389022510896 31.115858387053294 2.0000000000000004
  endloop
endfacet
facet normal 0.0 1.0 0.0
  outer loop
    vertex 28.523890225108964 57.1158583870533 2.0000000000000004
    vertex 82.5238902251088 57.1158583870533 0.0
    vertex 28.523890225108964 57.1158583870533 0.0
  endloop
endfacet
facet normal 0.0 1.0 0.0
  outer loop
    vertex 82.5238902251088 57.1158583870533 0.0
    vertex 28.523890225108964 57.1158583870533 2.0000000000000004
    vertex 30.52389022510895 57.1158583870533 2.0000000000000004
  endloop
endfacet
facet normal 0.0 1.0 0.0
  outer loop
    vertex 82.5238902251088 57.1158583870533 0.0
    vertex 30.52389022510895 57.1158583870533 2.0000000000000004
    vertex 82.5238902251088 57.1158583870533 2.0000000000000018
  endloop
endfacet
facet normal 0.0 1.0 0.0
  outer loop
    vertex 30.52389022510895 57.1158583870533 2.0000000000000004
    vertex 28.523890225108964 57.1158583870533 2.0000000000000004
    vertex 29.52389022510896 57.1158583870533 2.0000000000000004
  endloop
endfacet
facet normal 1.0 0.0 0.0
  outer loop
    vertex 82.5238902251088 57.1158583870533 0.0
    vertex 82.5238902251088 31.115858387053294 2.0000000000000018
    vertex 82.5238902251088 31.115858387053294 0.0
  endloop
endfacet
facet normal 1.0 0.0 0.0
  outer loop
    vertex 82.5238902251088 31.115858387053294 2.0000000000000018
    vertex 82.5238902251088 57.1158583870533 0.0
    vertex 82.5238902251088 32.115858387053294 2.0000000000000018
  endloop
endfacet
facet normal 1.0 0.0 0.0
  outer loop
    vertex 82.5238902251088 32.115858387053294 2.0000000000000018
    vertex 82.5238902251088 57.1158583870533 0.0
    vertex 82.52389022510877 38.115858387053294 11.000000000000002
  endloop
endfacet
facet normal 1.0 0.0 0.0
  outer loop
    vertex 82.5238902251088 32.115858387053294 2.0000000000000018
    vertex 82.52389022510877 38.115858387053294 11.000000000000002
    vertex 82.5238902251088 32.115858387053294 15.0
  endloop
endfacet
facet normal 1.0 0.0 0.0
  outer loop
    vertex 82.52389022510877 38.115858387053294 11.000000000000002
    vertex 82.5238902251088 57.1158583870533 0.0
    vertex 82.52389022510877 50.115858387053294 10.999999999999993
  endloop
endfacet
facet normal 1.0 0.0 0.0
  outer loop
    vertex 82.52389022510877 50.115858387053294 10.999999999999993
    vertex 82.5238902251088 57.1158583870533 0.0
    vertex 82.5238902251088 56.11585838705331 2.0000000000000004
  endloop
endfacet
facet normal 1.0 0.0 0.0
  outer loop
    vertex 82.52389022510877 50.115858387053294 10.999999999999993
    vertex 82.5238902251088 56.11585838705331 2.0000000000000004
    vertex 82.5238902251088 50.115858387053294 14.999999999999993
  endloop
endfacet
facet normal 1.0 0.0 0.0
  outer loop
    vertex 82.5238902251088 56.11585838705331 2.0000000000000004
    vertex 82.5238902251088 57.1158583870533 0.0
    vertex 82.5238902251088 57.1158583870533 2.0000000000000018
  endloop
endfacet
facet normal 1.0 0.0 0.0
  outer loop
    vertex 82.5238902251088 56.11585838705331 14.999999999999998
    vertex 82.5238902251088 50.115858387053294 14.999999999999993
    vertex 82.5238902251088 56.11585838705331 2.0000000000000004
  endloop
endfacet
facet normal 1.0 0.0 0.0
  outer loop
    vertex 82.5238902251088 38.115858387053294 15.0
    vertex 82.5238902251088 32.115858387053294 15.0
    vertex 82.52389022510877 38.115858387053294 11.000000000000002
  endloop
endfacet
facet normal 0.0 0.0 1.0
  outer loop
    vertex 30.52389022510895 31.115858387053294 2.0000000000000004
    vertex 29.52389022510896 32.115858387053294 2.0000000000000004
    vertex 29.52389022510896 31.115858387053294 2.0000000000000004
  endloop
endfacet
facet normal 0.0 0.0 1.0
  outer loop
    vertex 29.52389022510896 32.115858387053294 2.0000000000000004
    vertex 30.52389022510895 31.115858387053294 2.0000000000000004
    vertex 30.52389022510895 32.115858387053294 2.0000000000000004
  endloop
endfacet
facet normal 1.0 0.0 0.0
  outer loop
    vertex 82.5238902251088 32.115858387053294 2.0000000000000018
    vertex 82.5238902251088 31.115858387053294 15.0
    vertex 82.5238902251088 31.115858387053294 2.0000000000000018
  endloop
endfacet
facet normal 1.0 0.0 0.0
  outer loop
    vertex 82.5238902251088 31.115858387053294 15.0
    vertex 82.5238902251088 32.115858387053294 2.0000000000000018
    vertex 82.5238902251088 32.115858387053294 15.0
  endloop
endfacet
facet normal 0.0 -1.0 0.0
  outer loop
    vertex 30.52389022510895 32.115858387053294 3.0000000000000004
    vertex 29.52389022510896 32.115858387053294 2.0000000000000004
    vertex 30.52389022510895 32.115858387053294 2.0000000000000004
  endloop
endfacet
facet normal 0.0 -1.0 0.0
  outer loop
    vertex 29.52389022510896 32.115858387053294 2.0000000000000004
    vertex 30.52389022510895 32.115858387053294 3.0000000000000004
    vertex 29.52389022510896 32.115858387053294 3.0000000000000004
  endloop
endfacet
facet normal 1.0 0.0 0.0
  outer loop
    vertex 82.5238902251088 57.1158583870533 2.0000000000000018
    vertex 82.5238902251088 56.11585838705331 14.999999999999998
    vertex 82.5238902251088 56.11585838705331 2.0000000000000004
  endloop
endfacet
facet normal 1.0 0.0 0.0
  outer loop
    vertex 82.5238902251088 56.11585838705331 14.999999999999998
    vertex 82.5238902251088 57.1158583870533 2.0000000000000018
    vertex 82.5238902251088 57.1158583870533 14.999999999999998
  endloop
endfacet
facet normal 0.0 1.0 0.0
  outer loop
    vertex 30.52389022510895 33.115858387053294 3.0000000000000004
    vertex 80.5238902251088 33.115858387053294 2.0000000000000004
    vertex 30.52389022510895 33.115858387053294 2.0000000000000004
  endloop
endfacet
facet normal 0.0 1.0 0.0
  outer loop
    vertex 80.5238902251088 33.115858387053294 2.0000000000000004
    vertex 30.52389022510895 33.115858387053294 3.0000000000000004
    vertex 81.5238902251088 33.115858387053294 2.0000000000000018
  endloop
endfacet
facet normal 0.0 1.0 0.0
  outer loop
    vertex 81.5238902251088 33.115858387053294 2.0000000000000018
    vertex 30.52389022510895 33.115858387053294 3.0000000000000004
    vertex 81.5238902251088 33.115858387053294 15.0
  endloop
endfacet
facet normal 0.0 1.0 0.0
  outer loop
    vertex 81.5238902251088 33.115858387053294 15.0
    vertex 30.52389022510895 33.115858387053294 3.0000000000000004
    vertex 81.5238902251088 33.115858387053294 16.0
  endloop
endfacet
facet normal 0.0 -1.0 0.0
  outer loop
    vertex 82.5238902251088 31.115858387053294 2.0000000000000018
    vertex 82.5238902251088 31.115858387053294 16.0
    vertex 30.52389022510895 31.115858387053294 2.0000000000000004
  endloop
endfacet
facet normal 0.0 -1.0 0.0
  outer loop
    vertex 82.5238902251088 31.115858387053294 16.0
    vertex 82.5238902251088 31.115858387053294 2.0000000000000018
    vertex 82.5238902251088 31.115858387053294 15.0
  endloop
endfacet
facet normal -0.24700370508336525 0.0 0.9690145353270456
  outer loop
    vertex 81.5238902251088 55.11585838705331 15.999999999999998
    vertex 30.52389022510895 56.11585838705331 3.0000000000000004
    vertex 30.52389022510895 55.11585838705331 3.0000000000000004
  endloop
endfacet
facet normal -0.24700370508336525 0.0 0.9690145353270456
  outer loop
    vertex 30.52389022510895 56.11585838705331 3.0000000000000004
    vertex 81.5238902251088 55.11585838705331 15.999999999999998
    vertex 81.5238902251088 56.11585838705331 15.999999999999998
  endloop
endfacet
facet normal 0.0 1.0 0.0
  outer loop
    vertex 30.52389022510895 56.11585838705331 3.0000000000000004
    vertex 81.5238902251088 56.11585838705331 15.730769230769234
    vertex 30.52389022510895 56.11585838705331 2.0000000000000004
  endloop
endfacet
facet normal 0.0 1.0 0.0
  outer loop
    vertex 81.5238902251088 56.11585838705331 15.730769230769234
    vertex 30.52389022510895 56.11585838705331 3.0000000000000004
    vertex 81.5238902251088 56.11585838705331 15.999999999999998
  endloop
endfacet
facet normal 0.0 0.0 1.0
  outer loop
    vertex 30.52389022510895 56.11585838705331 2.0000000000000004
    vertex 29.52389022510896 57.1158583870533 2.0000000000000004
    vertex 29.52389022510896 56.11585838705331 2.0000000000000004
  endloop
endfacet
facet normal 0.0 0.0 1.0
  outer loop
    vertex 29.52389022510896 57.1158583870533 2.0000000000000004
    vertex 30.52389022510895 56.11585838705331 2.0000000000000004
    vertex 30.52389022510895 57.1158583870533 2.0000000000000004
  endloop
endfacet
facet normal 0.0 -1.0 0.0
  outer loop
    vertex 82.5238902251088 56.11585838705331 16.0
    vertex 81.5238902251088 56.11585838705331 14.999999999999998
    vertex 82.5238902251088 56.11585838705331 14.999999999999998
  endloop
endfacet
facet normal 0.0 -1.0 0.0
  outer loop
    vertex 81.5238902251088 56.11585838705331 14.999999999999998
    vertex 82.5238902251088 56.11585838705331 16.0
    vertex 81.5238902251088 56.11585838705331 15.730769230769234
  endloop
endfacet
facet normal 0.0 1.0 0.0
  outer loop
    vertex 81.5238902251088 32.115858387053294 15.730769230769234
    vertex 82.5238902251088 32.115858387053294 15.0
    vertex 81.5238902251088 32.115858387053294 15.0
  endloop
endfacet
facet normal 0.0 1.0 0.0
  outer loop
    vertex 82.5238902251088 32.115858387053294 15.0
    vertex 81.5238902251088 32.115858387053294 15.730769230769234
    vertex 82.5238902251088 32.115858387053294 16.0
  endloop
endfacet
facet normal 0.0 1.0 0.0
  outer loop
    vertex 29.52389022510896 56.11585838705331 3.0000000000000004
    vertex 30.52389022510895 56.11585838705331 2.0000000000000004
    vertex 29.52389022510896 56.11585838705331 2.0000000000000004
  endloop
endfacet
facet normal 0.0 1.0 0.0
  outer loop
    vertex 30.52389022510895 56.11585838705331 2.0000000000000004
    vertex 29.52389022510896 56.11585838705331 3.0000000000000004
    vertex 30.52389022510895 56.11585838705331 3.0000000000000004
  endloop
endfacet
facet normal 1.0 0.0 0.0
  outer loop
    vertex 81.5238902251088 33.115858387053294 15.0
    vertex 81.5238902251088 32.115858387053294 15.730769230769234
    vertex 81.5238902251088 32.115858387053294 15.0
  endloop
endfacet
facet normal 1.0 0.0 0.0
  outer loop
    vertex 81.5238902251088 32.115858387053294 15.730769230769234
    vertex 81.5238902251088 33.115858387053294 15.0
    vertex 81.5238902251088 32.115858387053294 16.0
  endloop
endfacet
facet normal 1.0 0.0 0.0
  outer loop
    vertex 81.5238902251088 32.115858387053294 16.0
    vertex 81.5238902251088 33.115858387053294 15.0
    vertex 81.5238902251088 33.115858387053294 16.0
  endloop
endfacet
facet normal -0.2470037050833653 0.0 0.9690145353270456
  outer loop
    vertex 81.5238902251088 32.115858387053294 16.0
    vertex 30.52389022510895 33.115858387053294 3.0000000000000004
    vertex 30.52389022510895 32.115858387053294 3.0000000000000004
  endloop
endfacet
facet normal -0.2470037050833653 0.0 0.9690145353270456
  outer loop
    vertex 30.52389022510895 33.115858387053294 3.0000000000000004
    vertex 81.5238902251088 32.115858387053294 16.0
    vertex 81.5238902251088 33.115858387053294 16.0
  endloop
endfacet
facet normal -0.25997347344787336 0.0 0.9656157585206695
  outer loop
    vertex 82.5238902251088 31.115858387053294 16.0
    vertex 30.52389022510895 32.115858387053294 2.0000000000000004
    vertex 30.52389022510895 31.115858387053294 2.0000000000000004
  endloop
endfacet
facet normal -0.25997347344787336 0.0 0.9656157585206695
  outer loop
    vertex 30.52389022510895 32.115858387053294 2.0000000000000004
    vertex 82.5238902251088 31.115858387053294 16.0
    vertex 81.5238902251088 32.115858387053294 15.730769230769234
  endloop
endfacet
facet normal -0.25997347344787336 0.0 0.9656157585206695
  outer loop
    vertex 81.5238902251088 32.115858387053294 15.730769230769234
    vertex 82.5238902251088 31.115858387053294 16.0
    vertex 82.5238902251088 32.115858387053294 16.0
  endloop
endfacet
facet normal -1.0 0.0 0.0
  outer loop
    vertex 81.5238902251088 55.11585838705331 14.999999999999998
    vertex 81.52389022510877 50.115858387053294 10.999999999999998
    vertex 81.5238902251088 50.115858387053294 14.999999999999998
  endloop
endfacet
facet normal -1.0 0.0 0.0
  outer loop
    vertex 81.5238902251088 38.115858387053294 15.0
    vertex 81.5238902251088 33.115858387053294 2.0000000000000018
    vertex 81.5238902251088 33.115858387053294 15.0
  endloop
endfacet
facet normal -1.0 0.0 0.0
  outer loop
    vertex 81.5238902251088 33.115858387053294 2.0000000000000018
    vertex 81.5238902251088 38.115858387053294 15.0
    vertex 81.52389022510877 38.115858387053294 11.000000000000002
  endloop
endfacet
facet normal -1.0 0.0 0.0
  outer loop
    vertex 81.5238902251088 33.115858387053294 2.0000000000000018
    vertex 81.52389022510877 38.115858387053294 11.000000000000002
    vertex 81.5238902251088 55.11585838705331 2.0000000000000004
  endloop
endfacet
facet normal -1.0 0.0 0.0
  outer loop
    vertex 81.5238902251088 55.11585838705331 2.0000000000000004
    vertex 81.52389022510877 38.115858387053294 11.000000000000002
    vertex 81.52389022510877 50.115858387053294 10.999999999999998
  endloop
endfacet
facet normal -1.0 0.0 0.0
  outer loop
    vertex 81.5238902251088 55.11585838705331 2.0000000000000004
    vertex 81.52389022510877 50.115858387053294 10.999999999999998
    vertex 81.5238902251088 55.11585838705331 14.999999999999998
  endloop
endfacet
facet normal 2.8199664825479026e-15 4.699944137579828e-16 1.0
  outer loop
    vertex 82.52389022510877 38.115858387053294 11.000000000000002
    vertex 81.52389022510877 50.115858387053294 10.999999999999998
    vertex 81.52389022510877 38.115858387053294 11.000000000000002
  endloop
endfacet
facet normal 2.8199664825479026e-15 4.699944137579828e-16 1.0
  outer loop
    vertex 81.52389022510877 50.115858387053294 10.999999999999998
    vertex 82.52389022510877 38.115858387053294 11.000000000000002
    vertex 82.52389022510877 50.115858387053294 10.999999999999993
  endloop
endfacet
facet normal 2.650736987564525e-30 -1.0 4.699944137579828e-16
  outer loop
    vertex 82.5238902251088 50.115858387053294 14.999999999999993
    vertex 81.52389022510877 50.115858387053294 10.999999999999998
    vertex 82.52389022510877 50.115858387053294 10.999999999999993
  endloop
endfacet
facet normal 2.650736987564525e-30 -1.0 4.699944137579828e-16
  outer loop
    vertex 81.52389022510877 50.115858387053294 10.999999999999998
    vertex 82.5238902251088 50.115858387053294 14.999999999999993
    vertex 81.5238902251088 50.115858387053294 14.999999999999998
  endloop
endfacet
facet normal 2.528245811939498e-15 -4.3758100591260377e-16 1.0
  outer loop
    vertex 82.5238902251088 50.115858387053294 14.999999999999993
    vertex 81.5238902251088 55.11585838705331 14.999999999999998
    vertex 81.5238902251088 50.115858387053294 14.999999999999998
  endloop
endfacet
facet normal 2.528245811939498e-15 -4.3758100591260377e-16 1.0
  outer loop
    vertex 81.5238902251088 55.11585838705331 14.999999999999998
    vertex 82.5238902251088 50.115858387053294 14.999999999999993
    vertex 81.5238902251088 56.11585838705331 14.999999999999998
  endloop
endfacet
facet normal 2.528245811939498e-15 -4.3758100591260377e-16 1.0
  outer loop
    vertex 81.5238902251088 56.11585838705331 14.999999999999998
    vertex 82.5238902251088 50.115858387053294 14.999999999999993
    vertex 82.5238902251088 56.11585838705331 14.999999999999998
  endloop
endfacet
facet normal 1.0 0.0 0.0
  outer loop
    vertex 30.52389022510895 55.11585838705331 2.0000000000000004
    vertex 30.52389022510895 33.115858387053294 3.0000000000000004
    vertex 30.52389022510895 33.115858387053294 2.0000000000000004
  endloop
endfacet
facet normal 1.0 0.0 0.0
  outer loop
    vertex 30.52389022510895 33.115858387053294 3.0000000000000004
    vertex 30.52389022510895 55.11585838705331 2.0000000000000004
    vertex 30.52389022510895 55.11585838705331 3.0000000000000004
  endloop
endfacet
facet normal 0.0 1.0 0.0
  outer loop
    vertex 82.5238902251088 57.1158583870533 16.0
    vertex 82.5238902251088 57.1158583870533 2.0000000000000018
    vertex 30.52389022510895 57.1158583870533 2.0000000000000004
  endloop
endfacet
facet normal 0.0 1.0 0.0
  outer loop
    vertex 82.5238902251088 57.1158583870533 2.0000000000000018
    vertex 82.5238902251088 57.1158583870533 16.0
    vertex 82.5238902251088 57.1158583870533 14.999999999999998
  endloop
endfacet
facet normal 0.0 -1.0 0.0
  outer loop
    vertex 81.5238902251088 55.11585838705331 14.999999999999998
    vertex 80.5238902251088 55.11585838705331 2.0000000000000004
    vertex 81.5238902251088 55.11585838705331 2.0000000000000004
  endloop
endfacet
facet normal 0.0 -1.0 0.0
  outer loop
    vertex 80.5238902251088 55.11585838705331 2.0000000000000004
    vertex 81.5238902251088 55.11585838705331 14.999999999999998
    vertex 30.52389022510895 55.11585838705331 2.0000000000000004
  endloop
endfacet
facet normal 0.0 -1.0 0.0
  outer loop
    vertex 30.52389022510895 55.11585838705331 2.0000000000000004
    vertex 81.5238902251088 55.11585838705331 14.999999999999998
    vertex 30.52389022510895 55.11585838705331 3.0000000000000004
  endloop
endfacet
facet normal 0.0 -1.0 0.0
  outer loop
    vertex 30.52389022510895 55.11585838705331 3.0000000000000004
    vertex 81.5238902251088 55.11585838705331 14.999999999999998
    vertex 81.5238902251088 55.11585838705331 15.999999999999998
  endloop
endfacet
facet normal 0.0 0.0 1.0
  outer loop
    vertex 29.52389022510896 31.115858387053294 2.0000000000000004
    vertex 28.523890225108964 57.1158583870533 2.0000000000000004
    vertex 28.523890225108964 31.115858387053294 2.0000000000000004
  endloop
endfacet
facet normal 0.0 0.0 1.0
  outer loop
    vertex 28.523890225108964 57.1158583870533 2.0000000000000004
    vertex 29.52389022510896 31.115858387053294 2.0000000000000004
    vertex 29.52389022510896 57.1158583870533 2.0000000000000004
  endloop
endfacet
facet normal 0.0 0.0 1.0
  outer loop
    vertex 29.52389022510896 57.1158583870533 2.0000000000000004
    vertex 29.52389022510896 31.115858387053294 2.0000000000000004
    vertex 29.52389022510896 32.115858387053294 2.0000000000000004
  endloop
endfacet
facet normal 0.0 0.0 1.0
  outer loop
    vertex 29.52389022510896 57.1158583870533 2.0000000000000004
    vertex 29.52389022510896 32.115858387053294 2.0000000000000004
    vertex 29.52389022510896 56.11585838705331 2.0000000000000004
  endloop
endfacet
endsolid sample2_1
